# xmcd
# Track frame offsets:
# 150
# 13279
# 25827
# 34343
# 46265
# 60062
# 73648
# 83605
# 98068
# 110273
# 121964
# 132789
#
# Disc length: 1926 seconds
# Revision: 2
# Processed by: cddbd v1.5.2PL0 Copyright (c) Steve Scherf et al.
# Submitted via: VisiTrax 2.11.2.271 - For more info visit www.synapsa.com
#
DISCID=8f07840c
DTITLE=Slim Dusty - Sing Along With Dad
DYEAR=1968
DGENRE=Australian Country
TTITLE0=Sing Along With Dad
TTITLE1=Sad Cigarette
TTITLE2=You Can't Tell Me A Thing
TTITLE3=Been A Fool Too Long
TTITLE4=Frankie And Johnny
TTITLE5=Steppin' Around Australia
TTITLE6=Dear Old Sunny South By The Sea
TTITLE7=Angels In Disguise
TTITLE8=Missouri Waltz
TTITLE9=Dark Depth Of The Blues
TTITLE10=Side By Side
TTITLE11=The Old Rugged Cross
EXTD=1968 EMI Music Australia 1996 EMI Music Australia
EXTT0=
EXTT1=
EXTT2=
EXTT3=
EXTT4=
EXTT5=
EXTT6=
EXTT7=
EXTT8=
EXTT9=
EXTT10=
EXTT11=
PLAYORDER=
